<svg width="0" height="0" class="hidden">
  <symbol xmlns="http://www.w3.org/2000/svg" viewBox="0 0 448 512" id="dribbble">
    <path d="M90.2 228.2c8.9-42.4 37.4-77.7 75.7-95.7 3.6 4.9 28 38.8 50.7 79-64 17-120.3 16.8-126.4 16.7zM314.6 154c-33.6-29.8-79.3-41.1-122.6-30.6 3.8 5.1 28.6 38.9 51 80 48.6-18.3 69.1-45.9 71.6-49.4zM140.1 364c40.5 31.6 93.3 36.7 137.3 18-2-12-10-53.8-29.2-103.6-55.1 18.8-93.8 56.4-108.1 85.6zm98.8-108.2c-3.4-7.8-7.2-15.5-11.1-23.2C159.6 253 93.4 252.2 87.4 252c0 1.4-.1 2.8-.1 4.2 0 35.1 13.3 67.1 35.1 91.4 22.2-37.9 67.1-77.9 116.5-91.8zm34.9 16.3c17.9 49.1 25.1 89.1 26.5 97.4 30.7-20.7 52.5-53.6 58.6-91.6-4.6-1.5-42.3-12.7-85.1-5.8zm-20.3-48.4c4.8 9.8 8.3 17.8 12 26.8 45.5-5.7 90.7 3.4 95.2 4.4-.3-32.3-11.8-61.9-30.9-85.1-2.9 3.9-25.8 33.2-76.3 53.9zM448 80v352c0 26.5-21.5 48-48 48H48c-26.5 0-48-21.5-48-48V80c0-26.5 21.5-48 48-48h352c26.5 0 48 21.5 48 48zm-64 176c0-88.2-71.8-160-160-160S64 167.8 64 256s71.8 160 160 160 160-71.8 160-160z"></path>
  </symbol>
  <symbol xmlns="http://www.w3.org/2000/svg" viewBox="0 0 448 512" id="facebook">
    <path  d="M448 80v352c0 26.5-21.5 48-48 48h-85.3V302.8h60.6l8.7-67.6h-69.3V192c0-19.6 5.4-32.9 33.5-32.9H384V98.7c-6.2-.8-27.4-2.7-52.2-2.7-51.6 0-87 31.5-87 89.4v49.9H184v67.6h60.9V480H48c-26.5 0-48-21.5-48-48V80c0-26.5 21.5-48 48-48h352c26.5 0 48 21.5 48 48z"></path>
  </symbol>
  <symbol xmlns="http://www.w3.org/2000/svg" viewBox="0 0 448 512" id="twitter">
    <path d="M400 32H48C21.5 32 0 53.5 0 80v352c0 26.5 21.5 48 48 48h352c26.5 0 48-21.5 48-48V80c0-26.5-21.5-48-48-48zm-48.9 158.8c.2 2.8.2 5.7.2 8.5 0 86.7-66 186.6-186.6 186.6-37.2 0-71.7-10.8-100.7-29.4 5.3.6 10.4.8 15.8.8 30.7 0 58.9-10.4 81.4-28-28.8-.6-53-19.5-61.3-45.5 10.1 1.5 19.2 1.5 29.6-1.2-30-6.1-52.5-32.5-52.5-64.4v-.8c8.7 4.9 18.9 7.9 29.6 8.3a65.447 65.447 0 0 1-29.2-54.6c0-12.2 3.2-23.4 8.9-33.1 32.3 39.8 80.8 65.8 135.2 68.6-9.3-44.5 24-80.6 64-80.6 18.9 0 35.9 7.9 47.9 20.7 14.8-2.8 29-8.3 41.6-15.8-4.9 15.2-15.2 28-28.8 36.1 13.2-1.4 26-5.1 37.8-10.2-8.9 13.1-20.1 24.7-32.9 34z"></path>
  </symbol>
</svg>